<svg xmlns="http://www.w3.org/2000/svg" width="900" height="560" viewBox="0 0 900 560" role="img">
<style>text{font-family:Inter,Arial,sans-serif}.title{font-size:20px;font-weight:700;fill:#17201b}.label{font-size:12px;fill:#334139}.muted{font-size:11px;fill:#66736b}.value{font-size:12px;font-weight:700;fill:#17201b}</style>
<rect width="900" height="560" fill="#ffffff"/>
<text class="title" x="36" y="42">Final Building Demand Classification</text>
<path d="M 300 292 L 300.00 132.00 A 160 160 0 0 1 301.23 452.00 Z" fill="#cbd5d1"/>
<path d="M 300 292 L 301.23 452.00 A 160 160 0 0 1 265.94 448.33 Z" fill="#f59e0b"/>
<path d="M 300 292 L 265.94 448.33 A 160 160 0 0 1 298.54 132.01 Z" fill="#10b981"/>
<path d="M 300 292 L 298.54 132.01 A 160 160 0 0 1 300.00 132.00 Z" fill="#0f766e"/>
<rect x="540" y="144" width="20" height="20" rx="4" fill="#cbd5d1"/>
<text class="label" x="572" y="160">No explicit demand</text>
<text class="value" x="572" y="180">80,615 buildings · 49.9%</text>
<rect x="540" y="202" width="20" height="20" rx="4" fill="#f59e0b"/>
<text class="label" x="572" y="218">POI/commercial only</text>
<text class="value" x="572" y="238">5,716 buildings · 3.5%</text>
<rect x="540" y="260" width="20" height="20" rx="4" fill="#10b981"/>
<text class="label" x="572" y="276">Residential only</text>
<text class="value" x="572" y="296">75,061 buildings · 46.4%</text>
<rect x="540" y="318" width="20" height="20" rx="4" fill="#0f766e"/>
<text class="label" x="572" y="334">Both POI and residential</text>
<text class="value" x="572" y="354">234 buildings · 0.1%</text>
<circle cx="300" cy="292" r="74" fill="#ffffff"/>
<text class="value" x="300" y="288" text-anchor="middle">161,626</text>
<text class="muted" x="300" y="310" text-anchor="middle">buildings</text>
</svg>
